<svg width="115" height="115" viewBox="0 0 115 115" fill="none" xmlns="http://www.w3.org/2000/svg">
<g filter="url(#filter0_d_17_40)">
<path d="M73.9062 25.5469C79.7656 25.5469 84.4531 30.2344 84.4531 36.0938V68.9062C84.4531 74.7656 79.7656 79.4531 73.9062 79.4531H41.0938C35.2344 79.4531 30.5469 74.7656 30.5469 68.9062V36.0938C30.5469 30.2344 35.2344 25.5469 41.0938 25.5469H73.9062ZM57.5 37.9688C49.2969 37.9688 42.9688 44.5312 42.9688 52.5C42.9688 60.7031 49.5312 67.0312 57.5 67.0312C65.7031 67.0312 72.0312 60.4688 72.0312 52.5C72.0312 44.2969 65.7031 37.9688 57.5 37.9688ZM57.5 41.25C63.5938 41.25 68.75 46.1719 68.75 52.5C68.75 58.5938 63.8281 63.75 57.5 63.75C51.4062 63.75 46.25 58.8281 46.25 52.5C46.25 46.4062 51.4062 41.25 57.5 41.25ZM73.9062 32.5781C72.0312 32.5781 70.3906 34.2188 70.3906 36.0938C70.3906 37.9688 72.0312 39.6094 73.9062 39.6094C75.7812 39.6094 77.4219 37.9688 77.4219 36.0938C77.4219 34.2188 75.7812 32.5781 73.9062 32.5781Z" fill="white"/>
</g>
<defs>
<filter id="filter0_d_17_40" x="0.546875" y="0.546875" width="113.906" height="113.906" filterUnits="userSpaceOnUse" color-interpolation-filters="sRGB">
<feFlood flood-opacity="0" result="BackgroundImageFix"/>
<feColorMatrix in="SourceAlpha" type="matrix" values="0 0 0 0 0 0 0 0 0 0 0 0 0 0 0 0 0 0 127 0" result="hardAlpha"/>
<feOffset dy="5"/>
<feGaussianBlur stdDeviation="15"/>
<feColorMatrix type="matrix" values="0 0 0 0 0 0 0 0 0 0 0 0 0 0 0 0 0 0 0.25 0"/>
<feBlend mode="normal" in2="BackgroundImageFix" result="effect1_dropShadow_17_40"/>
<feBlend mode="normal" in="SourceGraphic" in2="effect1_dropShadow_17_40" result="shape"/>
</filter>
</defs>
</svg>
