<svg width="85" height="78" viewBox="0 0 85 78" fill="none" xmlns="http://www.w3.org/2000/svg">
<g clip-path="url(#clip0_17_84)" filter="url(#filter0_d_17_84)">
<path d="M73.2188 16.4689C76.4852 23.3235 75.2597 31.7985 69.563 37.4951L43.4996 63.5533C42.8921 64.1608 41.9054 64.1608 41.2978 63.5533L33.7109 55.9664L73.2188 16.4689Z" fill="#C5C0C6"/>
<path d="M43.5048 11.4318L22.2138 32.7229L16.3405 38.5961L25.0283 47.2839L64.5102 7.80195L64.4635 7.75523C57.6192 4.52523 49.1807 5.75596 43.5048 11.4318Z" fill="white"/>
<path d="M25.0283 47.2838L33.7161 55.9716L73.2188 16.4741C72.3412 14.6306 71.1468 12.9065 69.6201 11.385C68.0985 9.86348 66.3693 8.66392 64.531 7.7915L25.0283 47.2838Z" fill="#E9E8EA"/>
<path d="M25.0803 29.8563L11.8123 16.5884C8.52002 23.4638 9.71441 31.9335 15.3955 37.6146L16.3562 38.5753L25.0803 29.8563Z" fill="white"/>
<path d="M33.8044 21.1322L20.5417 7.86938C18.6982 8.75218 16.9637 9.95696 15.437 11.4837C13.905 13.0156 12.7055 14.7449 11.8227 16.5883L25.0854 29.8511L33.8044 21.1322Z" fill="#E9E8EA"/>
<path d="M42.5286 12.4081L41.5679 11.4474C35.8868 5.76631 27.4171 4.58231 20.5417 7.86944L33.8044 21.1322L42.5286 12.4081Z" fill="#C5C0C6"/>
</g>
<defs>
<filter id="filter0_d_17_84" x="0" y="0" width="85" height="78.0103" filterUnits="userSpaceOnUse" color-interpolation-filters="sRGB">
<feFlood flood-opacity="0" result="BackgroundImageFix"/>
<feColorMatrix in="SourceAlpha" type="matrix" values="0 0 0 0 0 0 0 0 0 0 0 0 0 0 0 0 0 0 127 0" result="hardAlpha"/>
<feOffset dy="4"/>
<feGaussianBlur stdDeviation="5"/>
<feComposite in2="hardAlpha" operator="out"/>
<feColorMatrix type="matrix" values="0 0 0 0 0 0 0 0 0 0 0 0 0 0 0 0 0 0 0.25 0"/>
<feBlend mode="normal" in2="BackgroundImageFix" result="effect1_dropShadow_17_84"/>
<feBlend mode="normal" in="SourceGraphic" in2="effect1_dropShadow_17_84" result="shape"/>
</filter>
<clipPath id="clip0_17_84">
<rect width="65" height="58.0103" fill="white" transform="translate(10 6)"/>
</clipPath>
</defs>
</svg>
