<svg width="30" height="24" viewBox="0 0 30 24" fill="none" xmlns="http://www.w3.org/2000/svg">
<path d="M6.00971 23.2574C4.82263 23.2595 3.66161 22.9094 2.6736 22.2513C1.68559 21.5933 0.915014 20.6569 0.459417 19.5608C0.00381906 18.4646 -0.11632 17.2579 0.114207 16.0934C0.344733 14.9289 0.915561 13.859 1.75444 13.0191L10.8089 3.98062C11.9533 2.89478 13.4707 2.28946 15.0482 2.28946C16.6257 2.28946 18.1431 2.89478 19.2875 3.98062C19.8456 4.5365 20.2885 5.19715 20.5908 5.92464C20.893 6.65213 21.0485 7.43213 21.0485 8.2199C21.0485 9.00766 20.893 9.78767 20.5908 10.5152C20.2885 11.2426 19.8456 11.9033 19.2875 12.4592L15.896 15.8506C15.7862 15.9685 15.6537 16.063 15.5066 16.1286C15.3594 16.1942 15.2005 16.2294 15.0394 16.2323C14.8783 16.2351 14.7183 16.2055 14.5689 16.1452C14.4195 16.0848 14.2838 15.995 14.1699 15.8811C14.0559 15.7671 13.9661 15.6314 13.9058 15.482C13.8454 15.3326 13.8158 15.1726 13.8186 15.0115C13.8215 14.8504 13.8567 14.6915 13.9223 14.5444C13.9879 14.3972 14.0824 14.2647 14.2003 14.1549L17.5918 10.7635C18.2658 10.0886 18.6444 9.17374 18.6444 8.2199C18.6444 7.26606 18.2658 6.35122 17.5918 5.67633C16.907 5.02119 15.9959 4.65554 15.0482 4.65554C14.1005 4.65554 13.1894 5.02119 12.5046 5.67633L3.45015 14.7148C2.85177 15.3155 2.48467 16.1082 2.41357 16.9531C2.34246 17.798 2.57192 18.6409 3.06149 19.3332C3.55106 20.0255 4.26931 20.5227 5.08963 20.7373C5.90994 20.9518 6.77966 20.8698 7.54545 20.5058C7.83396 20.3594 8.1688 20.3337 8.47631 20.4342C8.78381 20.5347 9.0388 20.7532 9.18518 21.0417C9.33155 21.3302 9.35732 21.6651 9.25682 21.9726C9.15632 22.2801 8.93777 22.5351 8.64927 22.6814C7.82288 23.0664 6.92134 23.2631 6.00971 23.2574Z" fill="white"/>
<path d="M15.0482 21.0017C13.8624 21.0006 12.7036 20.6482 11.7181 19.989C10.7325 19.3297 9.96441 18.3932 9.5108 17.2977C9.05718 16.2021 8.93839 14.9968 9.16943 13.8338C9.40046 12.6708 9.97096 11.6023 10.8089 10.7634L14.2003 7.37196C14.3101 7.25408 14.4426 7.15953 14.5898 7.09396C14.7369 7.02838 14.8958 6.99312 15.0569 6.99028C15.218 6.98744 15.378 7.01707 15.5274 7.07741C15.6768 7.13776 15.8125 7.22757 15.9265 7.3415C16.0404 7.45543 16.1302 7.59115 16.1906 7.74054C16.2509 7.88994 16.2805 8.04996 16.2777 8.21105C16.2749 8.37215 16.2396 8.53103 16.174 8.6782C16.1084 8.82537 16.0139 8.95783 15.896 9.06767L12.5046 12.4591C12.1509 12.7886 11.8673 13.186 11.6706 13.6275C11.4738 14.069 11.3681 14.5457 11.3595 15.029C11.351 15.5122 11.4399 15.9923 11.6209 16.4405C11.802 16.8887 12.0714 17.2958 12.4132 17.6376C12.755 17.9794 13.1621 18.2488 13.6103 18.4299C14.0585 18.6109 14.5386 18.6998 15.0219 18.6913C15.5052 18.6828 15.9818 18.577 16.4233 18.3802C16.8648 18.1835 17.2622 17.8999 17.5917 17.5462L26.6462 8.50777C27.2446 7.90704 27.6117 7.11435 27.6828 6.26944C27.7539 5.42452 27.5244 4.58163 27.0348 3.88935C26.5453 3.19706 25.827 2.69983 25.0067 2.48531C24.1864 2.27079 23.3167 2.35276 22.5509 2.71675C22.2619 2.84887 21.9326 2.86257 21.6336 2.75493C21.3346 2.64729 21.0896 2.42687 20.9512 2.14085C20.8136 1.85441 20.7953 1.52511 20.9003 1.2252C21.0053 0.925299 21.2249 0.679278 21.5111 0.541118C22.7792 -0.0374208 24.2093 -0.156283 25.5556 0.204949C26.9019 0.566181 28.0803 1.38496 28.8886 2.52063C29.6968 3.6563 30.0843 5.03798 29.9845 6.42831C29.8848 7.81864 29.304 9.13084 28.3419 10.1395L19.2874 19.178C18.7367 19.7475 18.0784 20.2019 17.3507 20.515C16.623 20.8281 15.8403 20.9935 15.0482 21.0017Z" fill="white"/>
</svg>
