<svg width="76" height="75" viewBox="0 0 76 75" fill="none" xmlns="http://www.w3.org/2000/svg">
<g filter="url(#filter0_d_17_70)">
<path d="M31.6406 21.797C32.5781 21.797 33.2812 22.5001 33.2812 23.2032V23.4376V48.9845C33.2812 49.922 32.5781 50.8595 31.6406 50.8595C30.7031 50.8595 30 50.1564 30 49.4532V49.2189V23.672C29.7656 22.7345 30.4688 21.797 31.6406 21.797ZM41.0156 22.2657C46.875 22.2657 50.625 25.547 51.3281 32.5782V33.2814L51.7969 33.047C58.5938 30.2345 65.3906 34.6876 65.3906 42.1876C65.3906 46.8751 62.5781 50.1564 57.6563 50.3907H57.1875H40.7812C40.3125 50.3907 39.8438 49.922 39.6094 49.4532V49.2189V23.4376C39.8438 22.7345 40.3125 22.2657 41.0156 22.2657ZM22.2656 26.2501C23.2031 26.2501 23.9062 26.9532 23.9062 27.6564V27.8907V46.6407C23.9062 47.5782 23.2031 48.5157 22.0312 48.5157C21.0938 48.5157 20.3906 47.8126 20.3906 47.1095V46.8751V28.1251C20.625 27.1876 21.3281 26.2501 22.2656 26.2501ZM12.8906 30.9376C13.8281 30.9376 14.5312 31.6407 14.5312 32.3439V32.5782V41.9532C14.5312 42.8907 13.8281 43.8282 12.6563 43.8282C11.7188 43.8282 11.0156 43.1251 11.0156 42.422V42.1876V32.8126C11.25 31.8751 11.9531 30.9376 12.8906 30.9376Z" fill="white"/>
</g>
<defs>
<filter id="filter0_d_17_70" x="1.01562" y="15.797" width="74.375" height="49.0625" filterUnits="userSpaceOnUse" color-interpolation-filters="sRGB">
<feFlood flood-opacity="0" result="BackgroundImageFix"/>
<feColorMatrix in="SourceAlpha" type="matrix" values="0 0 0 0 0 0 0 0 0 0 0 0 0 0 0 0 0 0 127 0" result="hardAlpha"/>
<feOffset dy="4"/>
<feGaussianBlur stdDeviation="5"/>
<feColorMatrix type="matrix" values="0 0 0 0 0 0 0 0 0 0 0 0 0 0 0 0 0 0 0.25 0"/>
<feBlend mode="normal" in2="BackgroundImageFix" result="effect1_dropShadow_17_70"/>
<feBlend mode="normal" in="SourceGraphic" in2="effect1_dropShadow_17_70" result="shape"/>
</filter>
</defs>
</svg>
