<svg width="75" height="78" viewBox="0 0 75 78" fill="none" xmlns="http://www.w3.org/2000/svg">
<g filter="url(#filter0_d_17_58)">
<path d="M18.7311 48.1293C18.7311 52.1616 20.3769 56.0288 23.3064 58.8801C26.2359 61.7314 30.2092 63.3332 34.3522 63.3332C38.4951 63.3332 42.4683 61.7314 45.3978 58.8801C48.3274 56.0288 49.9731 52.1616 49.9731 48.1293V31.1195L52.2293 32.2927C55.0754 33.7735 58.2552 34.5422 61.4824 34.5296V26.5258C58.4311 26.5222 55.5059 25.3408 53.3482 23.2408C51.1906 21.1408 49.9768 18.2937 49.9731 15.3239H41.7497V48.1293C41.7469 49.552 41.3112 50.9421 40.4974 52.1239C39.6836 53.3058 38.5283 54.2265 37.1774 54.7699C35.8264 55.3132 34.3404 55.4549 32.9068 55.1769C31.4733 54.8989 30.1563 54.2138 29.1225 53.208C28.0886 52.2022 27.3841 50.9209 27.0978 49.5257C26.8115 48.1306 26.9563 46.6841 27.5139 45.369C28.0715 44.0539 29.0171 42.929 30.231 42.1364C31.4449 41.3438 32.8728 40.919 34.3345 40.9156V32.9289C30.1967 32.9379 26.2312 34.5427 23.3065 37.3918C20.3819 40.2409 18.7367 44.102 18.7311 48.1293Z" fill="white"/>
<path d="M16.6684 46.1389C16.6374 48.1544 17.0185 50.1559 17.7894 52.0268C18.5604 53.8977 19.7059 55.6007 21.1594 57.0367C22.6128 58.4727 24.3451 59.6131 26.2556 60.3915C28.166 61.1699 30.2166 61.5708 32.2876 61.5708C34.3587 61.5708 36.4091 61.1699 38.3195 60.3915C40.23 59.6131 41.9622 58.4727 43.4157 57.0367C44.8691 55.6007 46.0146 53.8977 46.7856 52.0268C47.5566 50.1559 47.9377 48.1544 47.9067 46.1389V29.129L50.1664 30.2988C53.0112 31.7796 56.1898 32.5483 59.4158 32.5357V24.5353C56.3633 24.5335 53.4362 23.353 51.2771 21.2528C49.118 19.1526 47.9034 16.3044 47.8996 13.3334H39.6797V46.1389C39.6839 47.5646 39.2534 48.9594 38.4425 50.1468C37.6317 51.3342 36.477 52.2606 35.1248 52.8089C33.7726 53.3572 32.2837 53.5026 30.8466 53.2267C29.4094 52.9507 28.0888 52.266 27.0518 51.259C26.0147 50.2521 25.308 48.9683 25.0211 47.5702C24.7342 46.172 24.8801 44.7225 25.4402 43.4051C26.0002 42.0877 26.9493 40.9617 28.1673 40.1697C29.3853 39.3777 30.8175 38.9553 32.2823 38.9559V30.9521C28.1451 30.9584 24.179 32.5601 21.2526 35.4065C18.3261 38.253 16.6777 42.1121 16.6684 46.1389Z" fill="white"/>
<path d="M59.4159 32.5355V26.3479C56.6192 25.8537 54.1094 24.3698 52.3698 22.1818C50.1224 20.4883 48.5977 18.0456 48.0893 15.3239H41.732V48.1293C41.7433 49.6794 41.239 51.1913 40.2946 52.4395C39.3502 53.6876 38.0163 54.6049 36.4922 55.0544C34.968 55.5039 33.3353 55.4614 31.838 54.9333C30.3406 54.4052 29.0589 53.4199 28.1843 52.1244C26.8533 51.2732 25.841 50.0258 25.2984 48.5685C24.7559 47.1111 24.7122 45.522 25.174 44.0385C25.6358 42.5551 26.5783 41.2568 27.8607 40.3376C29.1431 39.4184 30.6965 38.9276 32.2891 38.9386V33.0486C29.5212 33.403 26.9015 34.4734 24.7032 36.1482C22.5048 37.8231 20.8082 40.0411 19.79 42.5711C18.7718 45.1012 18.4694 47.8507 18.9142 50.5332C19.359 53.2157 20.5348 55.733 22.319 57.8229C24.5996 59.6652 27.372 60.8376 30.312 61.203C33.2519 61.5684 36.2379 61.1116 38.9209 59.8861C41.604 58.6605 43.8732 56.7169 45.4632 54.2825C47.0532 51.848 47.8982 49.0233 47.8995 46.1386V29.1288L50.1593 30.2985C53.0062 31.7805 56.1874 32.5492 59.4159 32.5355Z" fill="white"/>
</g>
<defs>
<filter id="filter0_d_17_58" x="6.66666" y="7.33337" width="64.8158" height="69.9998" filterUnits="userSpaceOnUse" color-interpolation-filters="sRGB">
<feFlood flood-opacity="0" result="BackgroundImageFix"/>
<feColorMatrix in="SourceAlpha" type="matrix" values="0 0 0 0 0 0 0 0 0 0 0 0 0 0 0 0 0 0 127 0" result="hardAlpha"/>
<feOffset dy="4"/>
<feGaussianBlur stdDeviation="5"/>
<feColorMatrix type="matrix" values="0 0 0 0 0 0 0 0 0 0 0 0 0 0 0 0 0 0 0.25 0"/>
<feBlend mode="normal" in2="BackgroundImageFix" result="effect1_dropShadow_17_58"/>
<feBlend mode="normal" in="SourceGraphic" in2="effect1_dropShadow_17_58" result="shape"/>
</filter>
</defs>
</svg>
