<svg width="87" height="75" viewBox="0 0 87 75" fill="none" xmlns="http://www.w3.org/2000/svg">
<g filter="url(#filter0_d_17_46)">
<path d="M21.695 20.0924H12.7956C12.7956 20.0924 9.35102 19.7684 10.6102 22.5435C11.8693 25.3186 18.9206 39.618 23.7908 45.0187C28.6609 50.4194 34.4616 55.0681 43.9415 55.147C48.7263 54.985 49.23 54.5779 49.23 51.0674C49.23 47.557 51.663 44.6115 54.9368 48.122C58.2106 51.6324 58.6289 52.2764 59.888 53.3523C61.1472 54.4283 62.2399 55.2301 66.1838 55.2301C70.1277 55.2301 74.3278 55.147 74.3278 55.147C74.3278 55.147 79.3644 54.4159 75.6083 49.9998C73.0216 47.046 70.2414 44.2581 67.285 41.6536C66.8582 41.2382 64.596 38.9574 66.9478 36.3402C69.2997 33.7229 74.84 26.619 76.2656 23.7566C77.6912 20.8942 76.7735 20.242 74.2552 20.242H63.7508C63.7508 20.242 61.4033 19.5067 60.3917 22.369C59.3801 25.2314 56.7849 31.276 52.4184 35.4387C50.9075 36.8304 49.23 36.2696 49.1446 32.4185C49.0593 28.5674 49.23 22.0325 49.23 22.0325C49.23 22.0325 49.5629 18.4348 45.03 18.3559C40.497 18.277 36.5531 18.4307 36.5531 18.4307C36.5531 18.4307 32.7756 18.68 32.2847 20.8859C34.214 20.7239 36.0622 21.9453 36.314 25.1359C36.5659 28.3264 36.7409 32.8962 36.0622 34.533C35.3835 36.1699 34.2994 37.3912 31.4439 33.7022C28.5884 30.0131 25.8054 24.9032 25.2164 23.4159C24.6274 21.9287 23.7908 20.3251 21.695 20.0924Z" fill="white"/>
</g>
<defs>
<filter id="filter0_d_17_46" x="0.333344" y="12.3334" width="86.6667" height="56.8967" filterUnits="userSpaceOnUse" color-interpolation-filters="sRGB">
<feFlood flood-opacity="0" result="BackgroundImageFix"/>
<feColorMatrix in="SourceAlpha" type="matrix" values="0 0 0 0 0 0 0 0 0 0 0 0 0 0 0 0 0 0 127 0" result="hardAlpha"/>
<feOffset dy="4"/>
<feGaussianBlur stdDeviation="5"/>
<feColorMatrix type="matrix" values="0 0 0 0 0 0 0 0 0 0 0 0 0 0 0 0 0 0 0.25 0"/>
<feBlend mode="normal" in2="BackgroundImageFix" result="effect1_dropShadow_17_46"/>
<feBlend mode="normal" in="SourceGraphic" in2="effect1_dropShadow_17_46" result="shape"/>
</filter>
</defs>
</svg>
